<svg xmlns="http://www.w3.org/2000/svg" xmlns:xlink="http://www.w3.org/1999/xlink" width="500" zoomAndPan="magnify" viewBox="0 0 375 374.999991" height="500" preserveAspectRatio="xMidYMid meet" version="1.0"><defs><clipPath id="0e7b54d538"><path d="M 21.09375 0 L 143 0 L 143 123 L 21.09375 123 Z M 21.09375 0 " clip-rule="nonzero"/></clipPath></defs><g clip-path="url(#0e7b54d538)"><path fill="#000000" d="M 81.722656 122.445312 C 115.265625 122.445312 142.558594 95.152344 142.558594 61.605469 C 142.558594 28.0625 115.265625 0.769531 81.722656 0.769531 C 48.175781 0.769531 20.882812 28.0625 20.882812 61.605469 C 20.882812 95.152344 48.175781 122.445312 81.722656 122.445312 Z M 81.722656 17.554688 C 106.007812 17.554688 125.773438 37.316406 125.773438 61.605469 C 125.773438 85.894531 106.011719 105.65625 81.722656 105.65625 C 57.429688 105.65625 37.671875 85.898438 37.671875 61.605469 C 37.671875 37.320312 57.433594 17.554688 81.722656 17.554688 Z M 81.722656 17.554688 " fill-opacity="1" fill-rule="nonzero"/></g><path fill="#000000" d="M 301.488281 220.394531 C 272.699219 220.394531 249.277344 243.816406 249.277344 272.605469 C 249.277344 301.390625 272.699219 324.808594 301.488281 324.808594 C 330.273438 324.808594 353.695312 301.390625 353.695312 272.605469 C 353.695312 243.816406 330.273438 220.394531 301.488281 220.394531 Z M 301.488281 308.027344 C 281.953125 308.027344 266.066406 292.136719 266.066406 272.609375 C 266.066406 253.078125 281.953125 237.1875 301.488281 237.1875 C 321.019531 237.1875 336.910156 253.078125 336.910156 272.609375 C 336.910156 292.132812 321.019531 308.027344 301.488281 308.027344 Z M 301.488281 308.027344 " fill-opacity="1" fill-rule="nonzero"/><path fill="#000000" d="M 241.550781 86.984375 C 257.074219 86.984375 269.707031 74.351562 269.707031 58.828125 C 269.707031 43.304688 257.074219 30.671875 241.550781 30.671875 C 226.027344 30.671875 213.394531 43.304688 213.394531 58.828125 C 213.394531 74.351562 226.023438 86.984375 241.550781 86.984375 Z M 241.550781 47.457031 C 247.820312 47.457031 252.921875 52.558594 252.921875 58.828125 C 252.921875 65.097656 247.820312 70.195312 241.550781 70.195312 C 235.28125 70.195312 230.183594 65.097656 230.183594 58.828125 C 230.183594 52.558594 235.28125 47.457031 241.550781 47.457031 Z M 241.550781 47.457031 " fill-opacity="1" fill-rule="nonzero"/><path fill="#000000" d="M 94.519531 209.03125 C 94.519531 193.503906 81.886719 180.878906 66.359375 180.878906 C 50.835938 180.878906 38.203125 193.503906 38.203125 209.03125 C 38.203125 224.554688 50.835938 237.1875 66.359375 237.1875 C 81.886719 237.1875 94.519531 224.554688 94.519531 209.03125 Z M 54.992188 209.03125 C 54.992188 202.765625 60.089844 197.660156 66.359375 197.660156 C 72.632812 197.660156 77.730469 202.765625 77.730469 209.03125 C 77.730469 215.300781 72.632812 220.398438 66.359375 220.398438 C 60.089844 220.398438 54.992188 215.300781 54.992188 209.03125 Z M 54.992188 209.03125 " fill-opacity="1" fill-rule="nonzero"/><path fill="#000000" d="M 81.722656 317.5 C 66.199219 317.5 53.566406 330.132812 53.566406 345.65625 C 53.566406 361.179688 66.199219 373.8125 81.722656 373.8125 C 97.246094 373.8125 109.878906 361.179688 109.878906 345.65625 C 109.878906 330.132812 97.246094 317.5 81.722656 317.5 Z M 81.722656 357.023438 C 75.453125 357.023438 70.351562 351.925781 70.351562 345.65625 C 70.351562 339.386719 75.453125 334.285156 81.722656 334.285156 C 87.992188 334.285156 93.089844 339.386719 93.089844 345.65625 C 93.089844 351.925781 87.992188 357.023438 81.722656 357.023438 Z M 81.722656 357.023438 " fill-opacity="1" fill-rule="nonzero"/><path fill="#000000" d="M 257.230469 234.144531 C 260.191406 230.574219 259.691406 225.285156 256.117188 222.328125 L 230.628906 201.21875 C 233.109375 196.171875 234.539062 190.515625 234.539062 184.523438 C 234.539062 170.9375 227.359375 159.03125 216.617188 152.300781 L 234.09375 100.550781 C 235.578125 96.160156 233.222656 91.394531 228.828125 89.910156 C 224.429688 88.429688 219.667969 90.78125 218.191406 95.175781 L 200.777344 146.742188 C 199.371094 146.585938 197.949219 146.488281 196.503906 146.488281 C 189.339844 146.488281 182.652344 148.515625 176.925781 151.972656 L 144.953125 112.746094 C 142.019531 109.152344 136.734375 108.609375 133.140625 111.539062 C 129.550781 114.46875 129.011719 119.757812 131.9375 123.351562 L 164.753906 163.621094 C 161.117188 169.117188 158.910156 175.609375 158.558594 182.59375 L 106.027344 194.179688 C 101.496094 195.179688 98.640625 199.664062 99.636719 204.1875 C 100.503906 208.105469 103.972656 210.773438 107.828125 210.773438 C 108.425781 210.773438 109.035156 210.707031 109.644531 210.574219 L 161.398438 199.160156 C 163.710938 204.683594 167.300781 209.535156 171.78125 213.378906 L 101.148438 306.5 C 98.34375 310.191406 99.066406 315.457031 102.765625 318.261719 C 104.28125 319.40625 106.0625 319.964844 107.832031 319.964844 C 110.367188 319.964844 112.875 318.824219 114.523438 316.644531 L 186.863281 221.28125 C 189.945312 222.089844 193.164062 222.566406 196.503906 222.566406 C 205.421875 222.566406 213.613281 219.460938 220.105469 214.300781 L 245.417969 235.261719 C 246.980469 236.5625 248.878906 237.191406 250.765625 237.191406 C 253.175781 237.1875 255.574219 236.148438 257.230469 234.144531 Z M 196.503906 205.773438 C 184.785156 205.773438 175.253906 196.242188 175.253906 184.523438 C 175.253906 172.808594 184.785156 163.277344 196.503906 163.277344 C 208.214844 163.277344 217.75 172.808594 217.75 184.523438 C 217.75 196.242188 208.214844 205.773438 196.503906 205.773438 Z M 196.503906 205.773438 " fill-opacity="1" fill-rule="nonzero"/></svg>